<svg xmlns="http://www.w3.org/2000/svg" viewBox="0 0 250 80"><path d="M13.75,51c-.79,0-7-.47-6.46-11.09a.09.09,0,0,0-.09-.09H6.63a.09.09,0,0,0-.09.09C7.08,50.5.87,51,.08,51a.09.09,0,0,0-.08.09v.31a.09.09,0,0,0,.08.08H13.75a.09.09,0,0,0,.08-.08v-.31A.09.09,0,0,0,13.75,51Z" fill="#fff"/><path d="M40.91,18.34H32.23l-9.14,27-12.21-27a.11.11,0,0,0-.1-.06H1.49a.1.1,0,0,0-.1.1v.38a.11.11,0,0,0,.1.1A5.87,5.87,0,0,1,6.55,22L20.28,51.89a.09.09,0,0,0,.09,0h.47a.1.1,0,0,0,.1-.07l2.3-6.13h0l9-26.48V45.75c0,10.39-6.74,12.75-7.65,13a.09.09,0,0,0-.07.13l.15.36a.11.11,0,0,0,.11.07c13.11-.91,12.48-16.06,12.48-16.06V22.19c0-2.71,3.08-3.26,3.66-3.34a.11.11,0,0,0,.1-.11v-.3A.11.11,0,0,0,40.91,18.34Z" fill="#fff"/><path d="M62.09,19.92V33.27H60.34v-10l-4.44,10H54.67l-4.46-10v10H48.45V19.92h1.9l4.93,11,4.94-11Z" fill="#fff"/><path d="M65.8,21.25A3.07,3.07,0,0,1,67,20a3.17,3.17,0,0,1,1.64-.44,3.12,3.12,0,0,1,1.55.36,2.41,2.41,0,0,1,1,.94V19.71h1.39v6.75H71.12V25.3a2.37,2.37,0,0,1-1,.92,3.34,3.34,0,0,1-3.2-.1,3.18,3.18,0,0,1-1.16-1.25,3.74,3.74,0,0,1-.43-1.82A3.69,3.69,0,0,1,65.8,21.25Zm1.63,3.57a2.13,2.13,0,0,0,3.07,0,2.42,2.42,0,0,0,.62-1.74,2.43,2.43,0,0,0-.62-1.75A2,2,0,0,0,69,20.69a2.08,2.08,0,0,0-1.53.64,2.38,2.38,0,0,0-.61,1.74A2.46,2.46,0,0,0,67.43,24.82Z" fill="#fff"/><path d="M82.83,19.83v9.93a3.49,3.49,0,0,1-1,2.65,3.74,3.74,0,0,1-6.44-2.79h1.76a2.58,2.58,0,0,0,.51,1.61,2.1,2.1,0,0,0,2.94,0,2.28,2.28,0,0,0,.48-1.49V19.83Z" fill="#fff"/><path d="M90.12,32.53a6.45,6.45,0,0,1-2.44-2.45,7.41,7.41,0,0,1,0-7.08,6.38,6.38,0,0,1,2.44-2.45,6.72,6.72,0,0,1,3.41-.88,6.8,6.8,0,0,1,3.44.88A6.47,6.47,0,0,1,99.4,23a7.6,7.6,0,0,1,0,7.1A6.54,6.54,0,0,1,97,32.53a6.9,6.9,0,0,1-3.44.87A6.81,6.81,0,0,1,90.12,32.53Zm5.95-1.3a4.66,4.66,0,0,0,1.77-1.88,6.44,6.44,0,0,0,0-5.64,4.71,4.71,0,0,0-1.76-1.86,4.94,4.94,0,0,0-2.55-.66,4.88,4.88,0,0,0-2.54.66,4.67,4.67,0,0,0-1.77,1.86,5.94,5.94,0,0,0-.64,2.83,5.88,5.88,0,0,0,.64,2.81A4.61,4.61,0,0,0,91,31.23a5.27,5.27,0,0,0,5.07,0Z" fill="#fff"/><path d="M105.64,32.93A3.88,3.88,0,0,1,104,31.62a3.32,3.32,0,0,1-.62-1.94h1.87a2.47,2.47,0,0,0,.78,1.59,2.81,2.81,0,0,0,2,.65,2.89,2.89,0,0,0,2-.63,2,2,0,0,0,.73-1.61,1.79,1.79,0,0,0-.43-1.25,2.59,2.59,0,0,0-1.06-.73,14.83,14.83,0,0,0-1.71-.54,16.82,16.82,0,0,1-2.14-.7A3.32,3.32,0,0,1,104,25.37a3.19,3.19,0,0,1-.57-2,3.37,3.37,0,0,1,.56-1.94,3.59,3.59,0,0,1,1.57-1.32,5.65,5.65,0,0,1,2.32-.46,4.9,4.9,0,0,1,3.1,1,3.52,3.52,0,0,1,1.36,2.5h-1.93a2.16,2.16,0,0,0-.81-1.36,2.9,2.9,0,0,0-1.89-.58,2.77,2.77,0,0,0-1.8.57,1.94,1.94,0,0,0-.69,1.59,1.74,1.74,0,0,0,.41,1.19,2.68,2.68,0,0,0,1,.71c.4.16,1,.34,1.7.55a15.25,15.25,0,0,1,2.15.72,3.48,3.48,0,0,1,1.38,1.1,3.16,3.16,0,0,1,.58,2,3.53,3.53,0,0,1-.52,1.86,3.76,3.76,0,0,1-1.54,1.4,5.1,5.1,0,0,1-2.41.54A5.65,5.65,0,0,1,105.64,32.93Z" fill="#fff"/><path d="M118,21.25v4.5h4.9v1.44H118v4.63h5.48v1.45h-7.24V19.81h7.24v1.44Z" fill="#fff"/><path d="M133.83,23a6.36,6.36,0,0,1,2.42-2.46,6.66,6.66,0,0,1,3.4-.89,7,7,0,0,1,3.84,1.06,6.09,6.09,0,0,1,2.39,3h-2.1a4.22,4.22,0,0,0-1.61-1.87,4.64,4.64,0,0,0-2.52-.66,4.9,4.9,0,0,0-2.53.66,4.62,4.62,0,0,0-1.75,1.86,5.94,5.94,0,0,0-.64,2.83,5.82,5.82,0,0,0,.64,2.8,4.58,4.58,0,0,0,1.75,1.87,5,5,0,0,0,2.53.65,4.72,4.72,0,0,0,2.52-.64,4.22,4.22,0,0,0,1.61-1.87h2.1a6,6,0,0,1-2.39,3,7,7,0,0,1-3.84,1.06,6.76,6.76,0,0,1-3.4-.88,6.37,6.37,0,0,1-2.42-2.44,7.47,7.47,0,0,1,0-7.07Z" fill="#fff"/><path d="M157.59,30.28h-5.86l-1.08,3h-1.86l4.86-13.37h2l4.84,13.37h-1.85Zm-.5-1.43-2.43-6.79-2.43,6.79Z" fill="#fff"/><path d="M170.88,33.27l-3.2-5.5h-2.12v5.5H163.8V19.83h4.34a5.76,5.76,0,0,1,2.58.52,3.59,3.59,0,0,1,1.57,1.4,4,4,0,0,1,.52,2,4,4,0,0,1-.8,2.45,3.93,3.93,0,0,1-2.4,1.41L173,33.27Zm-5.32-6.91h2.58a2.92,2.92,0,0,0,2.14-.7,2.51,2.51,0,0,0,.71-1.88,2.4,2.4,0,0,0-.7-1.85,3.06,3.06,0,0,0-2.15-.66h-2.58Z" fill="#fff"/><path d="M183.76,33.27l-3.2-5.5h-2.12v5.5h-1.76V19.83H181a5.73,5.73,0,0,1,2.58.52,3.59,3.59,0,0,1,1.57,1.4,3.93,3.93,0,0,1,.52,2,4,4,0,0,1-.8,2.45,3.87,3.87,0,0,1-2.4,1.41l3.38,5.63Zm-5.32-6.91H181a3,3,0,0,0,2.15-.7,2.55,2.55,0,0,0,.71-1.88,2.4,2.4,0,0,0-.71-1.85,3,3,0,0,0-2.15-.66h-2.58Z" fill="#fff"/><path d="M197.52,30.28h-5.87l-1.08,3h-1.85l4.86-13.37h2l4.84,13.37H198.6ZM197,28.85l-2.43-6.79-2.43,6.79Z" fill="#fff"/><path d="M205.48,31.84h4.71v1.43h-6.46V19.83h1.75Z" fill="#fff"/><path d="M215,21.25v4.5h4.9v1.44H215v4.63h5.48v1.45h-7.23V19.81h7.23v1.44Z" fill="#fff"/><path d="M231.35,33.27l-3.2-5.5H226v5.5h-1.75V19.83h4.34a5.72,5.72,0,0,1,2.57.52,3.62,3.62,0,0,1,1.58,1.4,4,4,0,0,1,.52,2,4,4,0,0,1-.8,2.45,3.93,3.93,0,0,1-2.41,1.41l3.38,5.63ZM226,26.36h2.59a2.94,2.94,0,0,0,2.14-.7,2.51,2.51,0,0,0,.71-1.88,2.4,2.4,0,0,0-.7-1.85,3.06,3.06,0,0,0-2.15-.66H226Z" fill="#fff"/><path d="M239.83,32.53a6.43,6.43,0,0,1-2.43-2.45,7.41,7.41,0,0,1,0-7.08,6.36,6.36,0,0,1,2.43-2.45,7.11,7.11,0,0,1,6.85,0A6.33,6.33,0,0,1,249.11,23a7.53,7.53,0,0,1,0,7.1,6.4,6.4,0,0,1-2.43,2.44,7.18,7.18,0,0,1-6.85,0Zm6-1.3a4.66,4.66,0,0,0,1.77-1.88,6.44,6.44,0,0,0,0-5.64,4.67,4.67,0,0,0-1.77-1.86,4.88,4.88,0,0,0-2.54-.66,4.94,4.94,0,0,0-2.55.66,4.71,4.71,0,0,0-1.76,1.86,6.44,6.44,0,0,0,0,5.64,4.66,4.66,0,0,0,1.77,1.88,5.29,5.29,0,0,0,5.08,0Z" fill="#fff"/><path d="M53,46.91a3.26,3.26,0,0,1-2.28.71H48.9v3.83H48v-9h2.71a3.25,3.25,0,0,1,2.27.71,2.67,2.67,0,0,1,0,3.74Zm-.17-1.86a1.8,1.8,0,0,0-.5-1.37,2.33,2.33,0,0,0-1.61-.46H48.9v3.63h1.81C52.12,46.85,52.82,46.25,52.82,45.05Z" fill="#fff"/><path d="M66.21,51.45,64,47.7H62.32v3.75h-.9v-9h2.7a3.26,3.26,0,0,1,2.29.72,2.48,2.48,0,0,1,.77,1.89,2.54,2.54,0,0,1-.56,1.67,2.66,2.66,0,0,1-1.65.89l2.32,3.82ZM62.32,47h1.82a2.19,2.19,0,0,0,1.58-.51,1.81,1.81,0,0,0,.54-1.38,1.76,1.76,0,0,0-.52-1.37,2.31,2.31,0,0,0-1.62-.48h-1.8Z" fill="#fff"/><path d="M76.92,51a4.11,4.11,0,0,1-1.6-1.63,5.06,5.06,0,0,1,0-4.74,4.21,4.21,0,0,1,1.6-1.64,4.45,4.45,0,0,1,2.26-.58,4.5,4.5,0,0,1,2.28.58,4.18,4.18,0,0,1,1.59,1.64,5.13,5.13,0,0,1,0,4.74A4.09,4.09,0,0,1,81.46,51a4.41,4.41,0,0,1-2.28.59A4.36,4.36,0,0,1,76.92,51ZM81,50.29A3.3,3.3,0,0,0,82.24,49a4.62,4.62,0,0,0,0-4A3.34,3.34,0,0,0,81,43.62a3.75,3.75,0,0,0-3.6,0,3.34,3.34,0,0,0-1.26,1.32,4.62,4.62,0,0,0,0,4,3.3,3.3,0,0,0,1.26,1.33,3.68,3.68,0,0,0,3.6,0Z" fill="#fff"/><path d="M91.62,44.58a4.16,4.16,0,0,1,1.58-1.64,4.34,4.34,0,0,1,2.23-.58,4.57,4.57,0,0,1,2.58.71,4.11,4.11,0,0,1,1.57,2H98.52a3.11,3.11,0,0,0-1.18-1.42,3.35,3.35,0,0,0-1.91-.52,3.45,3.45,0,0,0-1.78.47,3.2,3.2,0,0,0-1.24,1.33,4.71,4.71,0,0,0,0,4,3.29,3.29,0,0,0,1.24,1.32,3.75,3.75,0,0,0,3.69-.05,3,3,0,0,0,1.18-1.4h1.06a4.06,4.06,0,0,1-1.57,2,4.62,4.62,0,0,1-2.58.71,4.35,4.35,0,0,1-2.23-.59,4.17,4.17,0,0,1-1.58-1.62,5.13,5.13,0,0,1,0-4.74Z" fill="#fff"/><path d="M108.4,42.46v5.66a2.74,2.74,0,0,0,.63,2,2.7,2.7,0,0,0,3.48,0,2.79,2.79,0,0,0,.62-2V42.46h.9v5.65a3.37,3.37,0,0,1-.91,2.57,3.67,3.67,0,0,1-4.72,0,3.41,3.41,0,0,1-.9-2.57V42.46Z" fill="#fff"/><path d="M127,51.45l-2.22-3.75h-1.66v3.75h-.9v-9h2.7a3.25,3.25,0,0,1,2.28.72,2.45,2.45,0,0,1,.78,1.89,2.59,2.59,0,0,1-.56,1.67,2.66,2.66,0,0,1-1.65.89l2.31,3.82ZM123.11,47h1.81a2.23,2.23,0,0,0,1.59-.51,1.84,1.84,0,0,0,.53-1.38,1.8,1.8,0,0,0-.51-1.37,2.32,2.32,0,0,0-1.62-.48h-1.8Z" fill="#fff"/><path d="M141.14,49.32h-4.09l-.79,2.13h-.95l3.28-8.87h1l3.26,8.87h-1Zm-.27-.75-1.78-4.86-1.77,4.86Z" fill="#fff"/><path d="M155.71,43a3.78,3.78,0,0,1,1.63,1.56A4.84,4.84,0,0,1,157.9,47a4.77,4.77,0,0,1-.56,2.39,3.76,3.76,0,0,1-1.63,1.55,5.79,5.79,0,0,1-2.56.53h-2.67v-9h2.67A5.65,5.65,0,0,1,155.71,43Zm.3,6.72A3.73,3.73,0,0,0,157,47a3.82,3.82,0,0,0-1-2.78,3.87,3.87,0,0,0-2.86-1h-1.77V50.7h1.77A3.86,3.86,0,0,0,156,49.72Z" fill="#fff"/><path d="M167.51,51a4.11,4.11,0,0,1-1.6-1.63,5.06,5.06,0,0,1,0-4.74,4.21,4.21,0,0,1,1.6-1.64,4.45,4.45,0,0,1,2.26-.58,4.5,4.5,0,0,1,2.28.58,4.11,4.11,0,0,1,1.59,1.64,5.13,5.13,0,0,1,0,4.74A4,4,0,0,1,172.05,51a4.41,4.41,0,0,1-2.28.59A4.36,4.36,0,0,1,167.51,51Zm4.06-.66A3.3,3.3,0,0,0,172.83,49a4.53,4.53,0,0,0,0-4,3.34,3.34,0,0,0-1.26-1.32,3.75,3.75,0,0,0-3.6,0,3.34,3.34,0,0,0-1.26,1.32,4.62,4.62,0,0,0,0,4A3.3,3.3,0,0,0,168,50.29a3.68,3.68,0,0,0,3.6,0Z" fill="#fff"/><path d="M186.82,51.45,184.6,47.7h-1.66v3.75H182v-9h2.7a3.23,3.23,0,0,1,2.28.72,2.45,2.45,0,0,1,.78,1.89,2.54,2.54,0,0,1-.56,1.67,2.66,2.66,0,0,1-1.65.89l2.31,3.82ZM182.94,47h1.81a2.2,2.2,0,0,0,1.59-.51,2,2,0,0,0,0-2.75,2.31,2.31,0,0,0-1.62-.48h-1.8Z" fill="#fff"/><path d="M201,49.32h-4.09l-.78,2.13h-1l3.28-8.87h1l3.26,8.87h-.95Zm-.27-.75-1.78-4.86-1.77,4.86Z" fill="#fff"/></svg>